<svg width="1200" height="900" viewBox="0 0 1200 900" fill="none" xmlns="http://www.w3.org/2000/svg">
  <rect width="1200" height="900" fill="#0A120E"/>
  <rect width="1200" height="900" fill="url(#bg)"/>
  <path d="M0 630C130 585 239 518 359 448C482 377 560 401 679 364C818 321 940 215 1200 261V900H0V630Z" fill="#18261F"/>
  <path d="M0 728C132 678 259 642 414 613C605 577 718 517 881 507C985 500 1092 533 1200 495V900H0V728Z" fill="#26382E"/>
  <path d="M0 808C135 775 280 733 448 714C636 693 804 718 947 700C1050 687 1128 657 1200 642V900H0V808Z" fill="#35493D"/>
  <defs>
    <linearGradient id="bg" x1="600" y1="0" x2="600" y2="900" gradientUnits="userSpaceOnUse">
      <stop stop-color="#153325"/>
      <stop offset="1" stop-color="#08100C"/>
    </linearGradient>
  </defs>
</svg>
