<svg width="900" height="1100" viewBox="0 0 900 1100" fill="none" xmlns="http://www.w3.org/2000/svg">
  <rect width="900" height="1100" fill="#08100C"/>
  <rect width="900" height="1100" fill="url(#bg)"/>
  <ellipse cx="450" cy="1028" rx="242" ry="37" fill="#0B1712"/>
  <path d="M301 677C301 590 370 520 455 520C539 520 607 590 607 677V818H301V677Z" fill="#1C2A23"/>
  <path d="M352 809H557V1100H352V809Z" fill="#24362C"/>
  <circle cx="452" cy="357" r="144" fill="#D7B782" fill-opacity="0.18"/>
  <path d="M331 341C331 275 384 222 450 222C516 222 569 275 569 341V414C569 480 516 533 450 533C384 533 331 480 331 414V341Z" fill="#B69364" fill-opacity="0.28"/>
  <path d="M321 320C321 245 380 183 455 183C530 183 589 245 589 320V347C547 335 495 304 453 269C413 311 366 332 321 341V320Z" fill="#31463A"/>
  <defs>
    <linearGradient id="bg" x1="450" y1="0" x2="450" y2="1100" gradientUnits="userSpaceOnUse">
      <stop stop-color="#15251E"/>
      <stop offset="1" stop-color="#09110D"/>
    </linearGradient>
  </defs>
</svg>
