<svg width="1000" height="800" viewBox="0 0 1000 800" fill="none" xmlns="http://www.w3.org/2000/svg">
  <rect width="1000" height="800" fill="#0A110D"/>
  <rect width="1000" height="800" fill="url(#bg)"/>
  <path d="M0 557C118 500 234 470 351 440C480 407 590 337 710 320C814 305 896 340 1000 300V800H0V557Z" fill="#18251F"/>
  <path d="M0 654C145 620 281 582 409 557C540 532 653 474 774 472C858 470 927 495 1000 470V800H0V654Z" fill="#2A392F"/>
  <path d="M540 196C592 177 649 186 691 216C725 240 742 285 732 324C724 358 699 390 663 403C616 420 562 414 521 388C481 364 456 321 460 279C464 241 494 210 540 196Z" fill="#C8A970" fill-opacity="0.2"/>
  <path d="M529 244C562 226 603 226 637 241C665 255 687 280 692 308C699 343 679 376 645 390C603 408 551 402 512 380C482 363 459 334 459 302C459 277 480 257 529 244Z" fill="#DCC08E" fill-opacity="0.18"/>
  <defs>
    <linearGradient id="bg" x1="500" y1="0" x2="500" y2="800" gradientUnits="userSpaceOnUse">
      <stop stop-color="#122019"/>
      <stop offset="1" stop-color="#070B08"/>
    </linearGradient>
  </defs>
</svg>
