<svg xmlns="http://www.w3.org/2000/svg" width="1800" height="1200" viewBox="0 0 1800 1200" fill="none">
  <rect width="1800" height="1200" fill="#050806"/>
  <rect width="1800" height="1200" fill="url(#bg)"/>
  <ellipse cx="1312" cy="170" rx="382" ry="224" fill="url(#glowTop)" opacity="0.8"/>
  <ellipse cx="350" cy="876" rx="470" ry="280" fill="url(#glowBottom)" opacity="0.7"/>
  <path d="M0 827C117 791 212 756 331 745C469 732 579 787 697 772C823 756 882 680 1006 661C1138 640 1206 697 1338 691C1508 682 1645 585 1800 517V1200H0V827Z" fill="url(#ridgeFar)" opacity="0.82"/>
  <path d="M0 909C131 882 226 836 356 830C503 823 621 874 758 858C895 842 973 763 1112 748C1255 732 1364 781 1498 758C1605 739 1691 680 1800 634V1200H0V909Z" fill="url(#ridgeMid)" opacity="0.92"/>
  <path d="M0 1014C140 978 239 931 361 925C497 918 621 972 760 958C909 944 1013 855 1158 835C1303 815 1420 862 1549 847C1649 835 1722 780 1800 736V1200H0V1014Z" fill="url(#ridgeNear)"/>
  <path d="M1143 237L1199 189L1263 246L1302 225L1364 282L1414 268L1492 340L1520 324L1593 408" stroke="#F0D6A3" stroke-opacity="0.44" stroke-width="3" stroke-linecap="round"/>
  <path d="M244 981C378 923 519 901 681 912C869 925 1030 1007 1206 997C1334 990 1462 940 1576 881" stroke="#E0BF84" stroke-opacity="0.22" stroke-width="2" stroke-linecap="round"/>
  <defs>
    <linearGradient id="bg" x1="178" y1="79" x2="1423" y2="1155" gradientUnits="userSpaceOnUse">
      <stop stop-color="#122018"/>
      <stop offset="0.38" stop-color="#0A120D"/>
      <stop offset="1" stop-color="#060907"/>
    </linearGradient>
    <radialGradient id="glowTop" cx="0" cy="0" r="1" gradientUnits="userSpaceOnUse" gradientTransform="translate(1312 170) rotate(116.3) scale(298.56 463.919)">
      <stop stop-color="#D6A765"/>
      <stop offset="1" stop-color="#D6A765" stop-opacity="0"/>
    </radialGradient>
    <radialGradient id="glowBottom" cx="0" cy="0" r="1" gradientUnits="userSpaceOnUse" gradientTransform="translate(350 876) rotate(27.4) scale(505.799 331.501)">
      <stop stop-color="#40644A"/>
      <stop offset="1" stop-color="#40644A" stop-opacity="0"/>
    </radialGradient>
    <linearGradient id="ridgeFar" x1="900" y1="517" x2="900" y2="1200" gradientUnits="userSpaceOnUse">
      <stop stop-color="#182219"/>
      <stop offset="1" stop-color="#08100B"/>
    </linearGradient>
    <linearGradient id="ridgeMid" x1="900" y1="634" x2="900" y2="1200" gradientUnits="userSpaceOnUse">
      <stop stop-color="#101712"/>
      <stop offset="1" stop-color="#060A07"/>
    </linearGradient>
    <linearGradient id="ridgeNear" x1="900" y1="736" x2="900" y2="1200" gradientUnits="userSpaceOnUse">
      <stop stop-color="#0B110D"/>
      <stop offset="1" stop-color="#040705"/>
    </linearGradient>
  </defs>
</svg>
